<?xml version="1.0" standalone="no"?>
<!DOCTYPE svg PUBLIC "-//W3C//DTD SVG 20010904//EN"
 "http://www.w3.org/TR/2001/REC-SVG-20010904/DTD/svg10.dtd">
<svg version="1.0" xmlns="http://www.w3.org/2000/svg"
 width="504.000000pt" height="504.000000pt" viewBox="0 0 504.000000 504.000000"
 preserveAspectRatio="xMidYMid meet">
<metadata>
Created by potrace 1.14, written by Peter Selinger 2001-2017
</metadata>
<g transform="translate(0.000000,504.000000) scale(0.100000,-0.100000)"
fill="#000000" stroke="none">
<path d="M2405 4873 c-138 -37 -554 -256 -931 -488 -18 -11 -54 -33 -81 -49
-26 -16 -151 -95 -276 -175 -126 -80 -236 -151 -245 -156 -9 -6 -40 -25 -67
-43 l-51 -34 2 -716 c0 -395 2 -722 3 -729 2 -18 61 -83 75 -83 6 0 78 -38
160 -85 81 -47 150 -85 152 -85 1 0 29 -15 61 -34 46 -27 363 -205 693 -388
25 -14 176 -97 335 -185 548 -302 567 -311 608 -281 16 12 17 43 18 338 0 179
0 343 -1 365 0 40 -1 41 -83 86 -45 26 -341 192 -657 369 -316 177 -591 332
-610 345 l-35 22 1 356 c0 196 2 358 5 360 5 5 122 73 194 113 693 386 752
416 826 417 47 0 66 -6 144 -50 50 -28 117 -65 150 -83 652 -353 716 -388 727
-404 4 -6 5 -26 2 -46 -5 -34 -8 -224 -5 -287 1 -27 9 -38 42 -58 38 -25 289
-167 409 -232 30 -16 90 -49 133 -73 43 -23 81 -40 84 -36 4 3 7 256 7 560 l1
555 -30 31 c-16 17 -95 75 -175 127 -80 53 -157 104 -172 115 -15 10 -29 18
-32 18 -2 0 -48 26 -103 58 -389 231 -912 490 -1103 546 -61 19 -145 27 -175
19z"/>
<path d="M2108 3689 c-17 -9 -18 -38 -18 -377 l0 -367 177 -100 c97 -55 203
-114 234 -132 32 -17 167 -93 301 -169 134 -76 293 -165 353 -199 167 -93 205
-115 263 -147 l52 -29 0 -362 -1 -362 -97 -54 c-53 -30 -209 -117 -347 -193
-137 -76 -261 -145 -275 -153 -14 -9 -76 -41 -137 -71 -88 -44 -123 -56 -161
-57 -49 0 -63 5 -162 60 -82 45 -314 172 -455 248 -38 21 -128 70 -200 109
-71 40 -147 80 -167 91 l-38 19 4 172 c5 187 1 206 -49 235 -278 159 -605 339
-617 339 -9 0 -17 -937 -10 -1062 5 -69 21 -88 157 -183 366 -255 1159 -675
1446 -764 106 -33 133 -35 211 -11 210 63 812 405 1466 832 l152 100 0 722 0
721 -25 37 c-14 20 -34 40 -46 43 -19 6 -195 102 -229 125 -8 6 -22 13 -30 17
-8 4 -92 50 -185 103 -94 53 -200 113 -237 133 -36 20 -173 96 -304 170 -233
131 -563 313 -714 394 -41 22 -109 59 -151 82 -83 44 -134 57 -161 40z"/>
</g>
</svg>
